<?xml version="1.0" encoding="utf-8"?>
<!-- Generator: Adobe Illustrator 23.0.6, SVG Export Plug-In . SVG Version: 6.00 Build 0)  -->
<svg version="1.1" id="Layer_1" xmlns="http://www.w3.org/2000/svg" xmlns:xlink="http://www.w3.org/1999/xlink" x="0px" y="0px"
	 viewBox="0 0 343.01 100" style="enable-background:new 0 0 343.01 100;" xml:space="preserve">
<style type="text/css">
	.st0{fill:#20133A;}
</style>
<g>
	<g id="Assets">
		<path class="st0" d="M23.18,18.57h44.45V30.6h-31.7v16.3h31.7v11.93h-31.7v26.23H23.18V18.57z M82.74,13.93
			c4.37,0,7.38,3.19,7.38,7.47s-2.91,7.47-7.47,7.47c-4.37,0-7.37-3.09-7.37-7.28C75.28,17.03,78.64,13.93,82.74,13.93z
			 M76.43,35.89H89v49.18H76.43V35.89z M125.44,49.55c-1.74-1.38-3.88-2.14-6.1-2.18c-5.11,0-8.02,3.28-8.02,10.47v27.24H98.85
			V35.89h11.93v7.12c2.55-5.56,6.47-7.56,11.75-7.56c2.98-0.01,5.9,0.88,8.38,2.55L125.44,49.55z M130.63,60.75
			c0-14.12,10.47-25.87,25.32-25.87s25.23,10.47,25.23,25.05v5.19h-38.26c1.37,6.19,6.2,10.29,13.57,10.29
			c5.74,0,9.66-2.73,12.21-7.28l10.48,6.29c-5.19,7.65-12.57,11.65-23.05,11.65c-15.92-0.01-25.48-10.66-25.48-25.33L130.63,60.75z
			 M143.1,55.19h25.87c-1.37-6.28-6.46-9.74-13.11-9.74c-5.98-0.01-10.98,3.36-12.72,9.74L143.1,55.19z M184.3,35.89h8.83v-2.46
			c0-13.39,5.65-18.94,18.04-18.94h4.38v10.84h-3.56c-5.83,0-7.12,2-7.12,8.1v2.46h10.69v11.28h-10.39v37.89h-12.02V47.17h-8.83
			V35.89z M217.91,60.48c0-14.12,10.75-25.59,25.69-25.59c14.13-0.01,25.6,11.44,25.61,25.58s-11.44,25.6-25.58,25.61
			c-0.01,0-0.02,0-0.03,0c-15.3-0.01-25.69-11.21-25.69-25.6V60.48z M257.09,60.48c0-7.83-5.83-13.93-13.48-13.93
			c-7.72,0-13.48,6.1-13.48,13.93s5.74,13.94,13.48,13.94c7.64-0.01,13.47-6.11,13.47-13.95L257.09,60.48z M286.24,59.93
			l-17.77-24.04h14.75L293.71,51l10.73-15.11h14.49l-18.04,23.95l18.94,25.22h-14.66l-11.75-16.03l-11.39,16.03h-14.66L286.24,59.93
			z"/>
	</g>
</g>
</svg>
