<?xml version="1.0" encoding="utf-8"?>
<!-- Generator: Adobe Illustrator 23.0.6, SVG Export Plug-In . SVG Version: 6.00 Build 0)  -->
<svg version="1.1" id="Layer_1" xmlns="http://www.w3.org/2000/svg" xmlns:xlink="http://www.w3.org/1999/xlink" x="0px" y="0px"
	 viewBox="0 0 685.66 100" style="enable-background:new 0 0 685.66 100;" xml:space="preserve">
<style type="text/css">
	.st0{fill-rule:evenodd;clip-rule:evenodd;fill:#FFFFFF;}
	.st1{fill-rule:evenodd;clip-rule:evenodd;fill:url(#SVGID_1_);}
</style>
<g>
	<g>
		<path class="st0" d="M23.46,23.23h40.09v8.53H32.89V46.6h27.19v8.6H32.89v21.99h-9.43V23.23z M97.33,49.93
			c3.4,0,6.1-0.76,8.12-2.43c2.01-1.59,3.05-3.82,3.05-6.59v-0.21c0-2.91-0.97-5.13-2.98-6.66c-1.94-1.53-4.72-2.29-8.25-2.29h-13.8
			v18.17H97.33z M74.02,23.23h24.07c3.4,0,6.38,0.49,9.02,1.39c2.64,0.97,4.79,2.29,6.52,3.95c1.46,1.53,2.57,3.26,3.33,5.2
			c0.76,1.94,1.18,4.09,1.18,6.45v0.14c0,2.22-0.35,4.23-0.97,6.03c-0.63,1.74-1.53,3.33-2.71,4.65c-1.11,1.39-2.43,2.57-4.02,3.47
			c-1.53,0.97-3.26,1.73-5.2,2.22l14.57,20.46h-11.17L95.32,58.32h-0.14H83.46v18.87h-9.43V23.23z M129.79,23.23h39.88v8.53h-30.52
			v13.87h27.05v8.53h-27.05v14.43h30.94v8.6h-40.3V23.23z M181.39,23.23h39.95v8.53h-30.52v13.87h27.05v8.53h-27.05v14.43h30.87v8.6
			h-40.3V23.23z"/>
		<path class="st0" d="M269.41,31.97h-17.13v-8.74h43.84v8.74h-17.13v45.22h-9.57V31.97z M306.1,23.23h9.43v22.4h25.87v-22.4h9.43
			v53.96h-9.43V54.44h-25.87v22.75h-9.43V23.23z M364.71,23.23h39.88v8.53h-30.52v13.87h27.05v8.53h-27.05v14.43h30.93v8.6h-40.3
			V23.23z"/>
		<path class="st0" d="M459.46,68.59c2.85,0,5.41-0.42,7.77-1.32c2.29-0.9,4.23-2.22,5.9-3.81c1.59-1.6,2.84-3.54,3.74-5.83
			c0.9-2.22,1.32-4.65,1.32-7.28v-0.14c0-2.64-0.42-5.13-1.32-7.35c-0.9-2.29-2.15-4.23-3.74-5.9c-1.67-1.59-3.61-2.84-5.9-3.81
			c-2.36-0.9-4.92-1.39-7.77-1.39h-10.61v36.83H459.46z M439.49,23.23h20.12c4.16,0,8.05,0.62,11.58,2.01
			c3.54,1.39,6.52,3.26,9.09,5.69c2.57,2.43,4.51,5.27,5.89,8.53c1.39,3.26,2.08,6.8,2.08,10.54v0.21c0,3.74-0.7,7.35-2.08,10.61
			c-1.39,3.26-3.33,6.1-5.89,8.53c-2.57,2.43-5.55,4.37-9.09,5.76c-3.54,1.39-7.42,2.08-11.58,2.08h-20.12V23.23z"/>
		<g>
			<path class="st0" d="M523.06,34.12c-10.06,23.58-8.81,20.95-18.24,43.07h-9.71l23.72-54.38h8.81l23.72,54.38h-9.99
				C533.4,58.25,531.87,54.58,523.06,34.12L523.06,34.12z"/>
			<path class="st0" d="M633.9,34.12c-10.06,23.58-8.81,20.95-18.24,43.08h-9.71l23.72-54.38h8.81l23.72,54.38h-9.99
				C644.24,58.26,642.71,54.58,633.9,34.12L633.9,34.12z"/>
		</g>
	</g>
	<linearGradient id="SVGID_1_" gradientUnits="userSpaceOnUse" x1="578.6559" y1="77.1909" x2="578.658" y2="10.4797">
		<stop  offset="0" style="stop-color:#E71756"/>
		<stop  offset="1" style="stop-color:#EF5023"/>
	</linearGradient>
	<path class="st1" d="M550.81,35.52c-3.48,0-6.35-2.86-6.35-6.35c0-3.5,2.86-6.35,6.35-6.35c23.23,0,32.48,0,55.7,0
		c3.49,0,6.35,2.86,6.35,6.35c0,3.49-2.87,6.35-6.35,6.35C583.28,35.52,574.03,35.52,550.81,35.52L550.81,35.52z M595.15,50
		c0,3.49-2.87,6.35-6.35,6.35c-7.57,0-12.7,0-20.28,0c-3.48,0-6.35-2.86-6.35-6.35c0-3.5,2.86-6.35,6.35-6.35c7.57,0,12.7,0,20.28,0
		C592.29,43.65,595.15,46.5,595.15,50L595.15,50z M586.29,70.84c0,3.49-2.87,6.35-6.35,6.35h-2.56c-3.48,0-6.35-2.86-6.35-6.35
		c0-3.5,2.86-6.35,6.35-6.35h2.56C583.43,64.48,586.29,67.34,586.29,70.84z"/>
</g>
</svg>
