<svg xmlns="http://www.w3.org/2000/svg" xmlns:xlink="http://www.w3.org/1999/xlink" viewBox="0 0 638.75 54.38"><defs><style>.cls-1{fill:#fff;}.cls-1,.cls-2{fill-rule:evenodd;}.cls-2{fill:url(#linear-gradient);}</style><linearGradient id="linear-gradient" x1="555.2" y1="54.38" x2="555.2" y2="-12.33" gradientUnits="userSpaceOnUse"><stop offset="0" stop-color="#e81856"/><stop offset="1" stop-color="#f05123"/></linearGradient></defs><title>Asset 2</title><g id="Layer_2" data-name="Layer 2"><g id="Artwork"><path class="cls-1" d="M0,.42H40.09V9H9.43V23.79H36.62v8.6H9.43v22H0Zm73.87,26.7c3.4,0,6.1-.76,8.12-2.43A8,8,0,0,0,85,18.1v-.2a7.79,7.79,0,0,0-3-6.66C80.11,9.71,77.34,9,73.8,9H60V27.12ZM50.56.42H74.63a27.75,27.75,0,0,1,9,1.38,18.43,18.43,0,0,1,6.52,4A15.73,15.73,0,0,1,93.5,11a17.55,17.55,0,0,1,1.18,6.45v.14a18.42,18.42,0,0,1-1,6A14.19,14.19,0,0,1,91,28.23a13.86,13.86,0,0,1-4,3.47,17.79,17.79,0,0,1-5.2,2.22L96.34,54.38H85.18L71.86,35.52H60V54.38H50.56Zm55.77,0h39.88V9H115.69V22.82h27.06v8.53H115.69V45.78h30.94v8.6h-40.3Zm51.6,0h40V9H167.37V22.82h27v8.53h-27V45.78h30.86v8.6h-40.3Z"/><path class="cls-1" d="M246,9.16H228.82V.42h43.84V9.16H255.53V54.38H246ZM282.65.42h9.43v22.4H318V.42h9.43v54H318V31.63H292.08V54.38h-9.43Zm58.61,0h39.88V9H350.62V22.82h27.05v8.53H350.62V45.78h30.93v8.6H341.26Z"/><path class="cls-1" d="M436,45.78a21.52,21.52,0,0,0,7.77-1.32,18.12,18.12,0,0,0,5.9-3.81,17,17,0,0,0,3.74-5.83,19.2,19.2,0,0,0,1.32-7.28V27.4a19.53,19.53,0,0,0-1.32-7.35,18,18,0,0,0-3.74-5.9,19.33,19.33,0,0,0-5.9-3.81A21.31,21.31,0,0,0,436,9H425.39V45.78ZM416,.42h20.11a31.43,31.43,0,0,1,11.58,2,27.61,27.61,0,0,1,9.09,5.69,25,25,0,0,1,5.9,8.53,26.82,26.82,0,0,1,2.08,10.54v.21A27.2,27.2,0,0,1,462.71,38a25.13,25.13,0,0,1-5.9,8.53,27.77,27.77,0,0,1-9.09,5.76,31.45,31.45,0,0,1-11.58,2.08H416Z"/><path class="cls-1" d="M499.6,11.31c-10.05,23.58-8.8,20.94-18.24,43.07h-9.71L495.37,0h8.82l23.72,54.38h-10c-8-18.93-9.51-22.61-18.32-43.07Z"/><path class="cls-1" d="M610.44,11.31c-10.05,23.58-8.81,20.94-18.24,43.07h-9.71L606.21,0H615l23.73,54.38h-10c-8-18.93-9.51-22.61-18.32-43.07Z"/><path class="cls-2" d="M527.35,12.71a6.36,6.36,0,1,1,0-12.71h55.7a6.36,6.36,0,0,1,0,12.71Zm44.34,14.48a6.37,6.37,0,0,1-6.35,6.35H545.06a6.35,6.35,0,1,1,0-12.7h20.28a6.37,6.37,0,0,1,6.35,6.35ZM562.83,48a6.38,6.38,0,0,1-6.35,6.35h-2.56a6.35,6.35,0,1,1,0-12.7h2.56A6.37,6.37,0,0,1,562.83,48Z"/></g></g></svg>