<svg id="Layer_1" data-name="Layer 1" xmlns="http://www.w3.org/2000/svg" viewBox="0 0 2000 571.86"><title>Artboard 2</title><path d="M746.16,254.1c-36.61,0-59.36,27.18-59.36,74.34,0,43.27,20,76.56,58.81,76.56,37.16,0,61.57-30,61.57-77.67C807.18,276.85,780,254.1,746.16,254.1Z"/><path d="M1727.18,380c0,16.08,7.76,28.85,29.4,28.85,25.52,0,52.7-18.31,54.36-59.92-11.64-1.66-24.41-3.33-36-3.33C1749.37,345.63,1727.18,352.84,1727.18,380Z"/><path d="M0,0V571.86H2000V0ZM581.88,454.37H477V313.46c0-43.27-14.42-59.91-42.71-59.91-34.4,0-48.26,24.4-48.26,59.36V400h33.28v54.37H314.49V313.46c0-43.27-14.42-59.91-42.72-59.91-34.39,0-48.26,24.4-48.26,59.36V400h47.71v54.37H118.66V400H152V258.54H118.66V204.17H223.51v37.72c15-26.62,41.05-42.71,76-42.71,36.06,0,69.35,17.2,81.55,53.81,13.87-33.29,42.16-53.81,81.55-53.81,44.94,0,86,27.18,86,86.55V400h33.28Zm161.51,5.54c-77.11,0-130.37-47.15-130.37-127,0-73.23,44.38-133.7,134.25-133.7S881,259.65,881,329.55C881,409.43,823.27,459.91,743.39,459.91Zm403.47-5.54H928.29l-7.21-37.73,137.57-158.1H980.44l-11.1,38.83-51.59-5.55,8.87-87.65h219.69l5.55,37.72L1013.16,400h81l11.65-38.83,56.59,5.55Zm142.82,0h-74.89V364.49h74.89Zm0-160.33h-74.89V204.17h74.89Zm46.85,160.33L1444.7,72.7h70.45L1407,454.37Zm145.34,0L1590.05,72.7h70.45L1552.33,454.37Zm384,5.55c-33.28,0-51.59-19.42-54.92-49.94-14.42,25.52-39.94,49.94-80.44,49.94-36,0-77.1-19.42-77.1-71.57,0-61.58,59.35-76,116.49-76a326.21,326.21,0,0,1,41,2.22v-8.32c0-25.52-.55-56-41-56-15,0-26.62,1.11-38.28,7.21l-8.08,28.15-57.14-6.1,9.75-57.55c43.83-17.76,66-22.75,107.07-22.75,53.81,0,99.3,27.74,99.3,84.88V392.79c0,14.43,5.55,19.41,17.2,19.41a37.69,37.69,0,0,0,10.54-1.66l.55,37.72A96.6,96.6,0,0,1,1865.86,459.92Z"/></svg>