<svg xmlns="http://www.w3.org/2000/svg" viewBox="0 0 370 74.7"><title>Asset 1</title><g id="Layer_2" data-name="Layer 2"><g id="Layer_1-2" data-name="Layer 1"><path d="M44.8,37.4a8.69,8.69,0,0,0,6.4-2.7,9,9,0,0,0,2.7-6.6,9,9,0,0,0-2.7-6.6,8.69,8.69,0,0,0-6.4-2.7H18V9.5a9.3,9.3,0,0,0-2.6-6.6A8.63,8.63,0,0,0,9.1.2,8.91,8.91,0,0,0,2.6,2.9,8.89,8.89,0,0,0,0,9.5V46.8A27.08,27.08,0,0,0,7.9,66.5,25.58,25.58,0,0,0,27,74.7H44.9A8.69,8.69,0,0,0,51.3,72a9.42,9.42,0,0,0,0-13.2,8.69,8.69,0,0,0-6.4-2.7h-18a8.32,8.32,0,0,1-6.3-2.7A9.3,9.3,0,0,1,18,46.8V37.5l26.8-.1Zm88.3-15a8.26,8.26,0,0,0-6,2.6,8.45,8.45,0,0,0-2.5,6.2V48.6a8.53,8.53,0,0,1-2.4,6.1,7.79,7.79,0,0,1-5.9,2.5,7.58,7.58,0,0,1-5.8-2.5,8.53,8.53,0,0,1-2.4-6.1V31.2a8.45,8.45,0,0,0-2.5-6.2,8.34,8.34,0,0,0-12.1,0A8.61,8.61,0,0,0,91,31.2V48.5a8.53,8.53,0,0,1-2.4,6.1,8.09,8.09,0,0,1-11.7,0,8.53,8.53,0,0,1-2.4-6.1V31.1A8.29,8.29,0,0,0,72,24.9a8,8,0,0,0-6-2.5,8.16,8.16,0,0,0-6,2.5,8.29,8.29,0,0,0-2.5,6.2V48.5A25.83,25.83,0,0,0,64.9,67a24,24,0,0,0,17.9,7.7A23.34,23.34,0,0,0,99.5,68a24.54,24.54,0,0,0,34.7-1,25.83,25.83,0,0,0,7.4-18.5V31.1a8.45,8.45,0,0,0-2.5-6.2A7.85,7.85,0,0,0,133.1,22.4ZM156,0a8.69,8.69,0,0,0-6.4,2.7,9,9,0,0,0-2.7,6.6,9,9,0,0,0,2.7,6.6,8.94,8.94,0,0,0,12.8,0,9,9,0,0,0,2.7-6.6,9,9,0,0,0-2.7-6.6A8.69,8.69,0,0,0,156,0Zm0,25.6a8.69,8.69,0,0,0-6.4,2.7,9,9,0,0,0-2.7,6.6V65.2a9,9,0,0,0,2.7,6.6,8.94,8.94,0,0,0,12.8,0,9,9,0,0,0,2.7-6.6V34.9a9,9,0,0,0-2.7-6.6A8.69,8.69,0,0,0,156,25.6Zm49.9,19.9a8.69,8.69,0,0,0,6.4-2.7,9.42,9.42,0,0,0,0-13.2,8.69,8.69,0,0,0-6.4-2.7H188.8V9.5a9.3,9.3,0,0,0-2.6-6.6A8.63,8.63,0,0,0,179.9.2a9.05,9.05,0,0,0-9.1,9.3s-3.3,44.2,7.9,57c5,5.7,11.7,8.2,19.1,8.2h8.1a8.69,8.69,0,0,0,6.4-2.7,9.42,9.42,0,0,0,0-13.2,8.69,8.69,0,0,0-6.4-2.7h-8.1a8.32,8.32,0,0,1-6.3-2.7c-1.7-1.8-1.6-7.7-1.6-7.7l16-.2Zm47.9,0a8.69,8.69,0,0,0,6.4-2.7,9.42,9.42,0,0,0,0-13.2,8.69,8.69,0,0,0-6.4-2.7H236.7V9.5a9.3,9.3,0,0,0-2.6-6.6A8.63,8.63,0,0,0,227.8.2a9.05,9.05,0,0,0-9.1,9.3s-3.3,44.2,7.9,57c5,5.7,11.7,8.2,19.1,8.2h8.1a8.69,8.69,0,0,0,6.4-2.7,9.42,9.42,0,0,0,0-13.2,8.69,8.69,0,0,0-6.4-2.7h-8.1a8.32,8.32,0,0,1-6.3-2.7c-1.7-1.8-1.6-7.7-1.6-7.7l16-.2ZM367.4,25.3a7.79,7.79,0,0,0-5.9-2.5H349.2a23.61,23.61,0,0,0-17.7,7.6,25.53,25.53,0,0,0-7.4,18.3V65.9a8.22,8.22,0,0,0,2.5,6.1,7.79,7.79,0,0,0,5.9,2.5,7.54,7.54,0,0,0,5.9-2.6,8.62,8.62,0,0,0,2.5-6.1V48.6a8.53,8.53,0,0,1,2.4-6.1,7.79,7.79,0,0,1,5.9-2.5h12.4a7.79,7.79,0,0,0,5.9-2.5,8.62,8.62,0,0,0,2.5-6.1,8.91,8.91,0,0,0-2.6-6.1Zm-74.5-2.5c-27.4,0-26.9,24.5-26.9,24.5,0,7.7,2,13.6,7.3,19.1a26.06,26.06,0,0,0,19.1,8.2c19.6.5,26.4-8.9,25.6-14.2-.9-4.5-5.1-5.2-7.9-4.7-4,.6-7.2,4.4-14,4.3-12.5-.6-11.5-6.3-11.5-6.3H312c6.2,0,8.9-2.1,8.9-8.1C320.9,38,314.4,22.8,292.9,22.8ZM284.8,42c0-6,9-6,9-6s9,0,9,6Z"/></g></g></svg>